<?xml version="1.0" encoding="utf-8"?>
<!-- Generator: Adobe Illustrator 23.0.3, SVG Export Plug-In . SVG Version: 6.00 Build 0)  -->
<svg version="1.1" id="Layer_1" xmlns="http://www.w3.org/2000/svg" xmlns:xlink="http://www.w3.org/1999/xlink" x="0px" y="0px"
	 viewBox="0 0 51.5 28" style="enable-background:new 0 0 51.5 28;" xml:space="preserve">
<style type="text/css">
	.st0{fill-rule:evenodd;clip-rule:evenodd;fill:#313048;}
</style>
<title>Acme-Logo-color</title>
<desc>Created with Sketch.</desc>
<g id="Web">
	<g id="About---HD-Copy" transform="translate(-54.000000, -36.000000)">
		<g id="nav">
			<g id="Acme" transform="translate(14.000000, 36.000000)">
				<g id="Acme-Logo-color" transform="translate(40.000000, 0.000000)">
					<g id="On-White-Background">
						<path id="Fill-11" class="st0" d="M14.6,10.9l0.6,4.5H14L14.6,10.9z M13.7,17.1h1.8l0.4,2.6h1.8L15.8,8.3h-2.3l-1.9,11.4h1.8
							L13.7,17.1z"/>
						<path id="Fill-12" class="st0" d="M21.6,19.8c0.7,0,1.4-0.3,1.9-0.8c0.5-0.5,0.8-1.2,0.8-1.9v-1.6h-1.8v1.6
							c0,0.3-0.1,0.5-0.3,0.7c-0.2,0.2-0.4,0.3-0.7,0.3c-0.3,0-0.5-0.1-0.7-0.3c-0.2-0.2-0.3-0.4-0.3-0.7v-6.2
							c0-0.3,0.1-0.5,0.3-0.7c0.2-0.2,0.4-0.3,0.7-0.3c0.3,0,0.5,0.1,0.7,0.3c0.2,0.2,0.3,0.4,0.3,0.7v1.3h1.8v-1.3
							c0-0.8-0.3-1.4-0.8-1.9c-0.5-0.5-1.2-0.8-1.9-0.8c-0.7,0-1.4,0.3-1.9,0.8c-0.5,0.5-0.8,1.2-0.8,1.9v6.2c0,0.8,0.3,1.4,0.8,1.9
							C20.2,19.6,20.8,19.8,21.6,19.8"/>
						<polygon id="Fill-13" class="st0" points="27.4,12.5 29,19.7 30.4,19.7 31.9,12.5 31.9,19.7 33.6,19.7 33.6,8.3 31.2,8.3 
							29.7,16.5 28.1,8.3 25.7,8.3 25.7,19.7 27.4,19.7 						"/>
						<polygon id="Fill-14" class="st0" points="40,18 36.8,18 36.8,14.9 39.1,14.9 39.1,13.1 36.8,13.1 36.8,10 40,10 40,8.3 
							35.1,8.3 35.1,19.7 40,19.7 						"/>
						<path id="Fill-15" class="st0" d="M1.7,26.2h48V1.8h-48V26.2z M0,28h51.5V0H0V28z"/>
					</g>
				</g>
			</g>
		</g>
	</g>
</g>
</svg>
